<?xml version="1.0" encoding="UTF-8"?>
<svg id="Calque_2" data-name="Calque 2" xmlns="http://www.w3.org/2000/svg" viewBox="0 0 120.78 120.95">
  <defs>
    <style>
      .cls-1 {
        fill: #5cc4e5;
      }
    </style>
  </defs>
  <g id="Calque_1-2" data-name="Calque 1">
    <path class="cls-1" d="M90.78,54.33s.62,12.19-1.78,18.06c-4.56,11.17-15.95,18.81-28.22,18.79-15.08-.02-27.88-11.01-30.22-25.91-2.58-16.47,8.8-32.13,25.13-34.81,7.08-1.17,13.56.34,19.98,3.23,3.1,1.39,6.48,1.76,9.73.03,1.8-.96,2.16-2.53.49-3.72-3.09-2.21-6.24-4.42-9.63-6.09-2.9-1.43-6.11-2.45-9.29-2.99-3.26-.55-6.66-.42-10-.38-3.76.04-7.36,1.03-10.79,2.54-4.93,2.17-9.54,4.7-13.37,8.76-2.99,3.16-5.71,6.4-7.94,10.1-2.88,4.78-4.39,10.02-4.84,15.52-.29,3.55.43,7.06.9,10.59.65,4.91,2.53,9.19,5.16,13.18,1.48,2.25,3.34,4.28,5.22,6.23,2.22,2.29,4.5,4.55,7.01,6.5,3.62,2.82,7.76,4.85,12.25,5.74,3.68.73,7.51,1.22,11.23,1.05,6.21-.28,12.12-1.72,17.65-5.06,3.95-2.38,7.01-5.6,10.47-8.45,7.25-5.97,17.6-5.7,24.51.57,9.93,9,8.01,24.91-4.45,31.22-4.06,2.06-8.28,2.29-12.68,1.36-3.7-.78-6.59-2.76-9.18-5.41-4.08-4.17-8.79-7.28-14.36-9.33-4.71-1.73-9.48-2.7-14.39-2.56-9.34.27-17.61,3.58-24.69,9.74-1.88,1.64-3.54,3.6-5.59,4.97-6.67,4.44-14.73,4.08-21.25-.59C-.59,111.19-1.42,100.88,1.79,93.82c.88-1.93,2.27-3.79,3.85-5.21,4.42-4,7.27-8.91,9.53-14.35,1.84-4.43,2.67-8.99,2.62-13.72-.12-10.69-3.95-19.92-11.47-27.5-2.37-2.39-4.77-4.92-5.56-8.06-1.04-4.13-1.14-8.48.52-12.68C6.74-1.53,24.15-3.8,33.36,6.58c5.06,5.7,11.57,9.27,19.18,10.5,3.03.49,6.11,1.08,9.15.95,4.35-.18,8.6-1.09,12.78-2.65,4.28-1.59,7.75-4.23,11.28-6.88.76-.57,1.31-1.44,1.97-2.15,5.69-6.07,12.67-7.78,20.37-5.19,7.61,2.56,11.72,8.39,12.58,16.31.33,3.08-.93,5.99-2.14,8.83-4.17,9.72-11.27,16.49-21.02,20.27-4.88,1.89-10.06,2.63-15.43,2.14-5.24-.48-10.05-2.08-14.87-4.02-6.46-2.59-12.43-1.51-17.73,3.1-4.49,3.91-6.35,8.96-5.68,14.73.73,6.23,3.99,10.81,9.88,13.48,3.92,1.78,7.88,2.36,11.9.99,6-2.04,10.28-5.91,11.83-12.34.65-2.67.06-7.98.06-7.98"/>
  </g>
</svg>